HIERARCHY
ROOT Hip
{
  OFFSET 0.000000 0.000000 0.000000
  CHANNELS 6 Xposition Yposition Zposition Zrotation Xrotation Yrotation
  JOINT RHip
  {
    OFFSET 0.000000 0.000000 0.000000
    CHANNELS 3 Xposition Yposition Zposition
    End Site
    {
      OFFSET 0.000000 0.100000 0.000000
    }
  }
  JOINT RKnee
  {
    OFFSET 0.000000 0.000000 0.000000
    CHANNELS 3 Xposition Yposition Zposition
    End Site
    {
      OFFSET 0.000000 0.100000 0.000000
    }
  }
  JOINT RFoot
  {
    OFFSET 0.000000 0.000000 0.000000
    CHANNELS 3 Xposition Yposition Zposition
    End Site
    {
      OFFSET 0.000000 0.100000 0.000000
    }
  }
  JOINT LHip
  {
    OFFSET 0.000000 0.000000 0.000000
    CHANNELS 3 Xposition Yposition Zposition
    End Site
    {
      OFFSET 0.000000 0.100000 0.000000
    }
  }
  JOINT LKnee
  {
    OFFSET 0.000000 0.000000 0.000000
    CHANNELS 3 Xposition Yposition Zposition
    End Site
    {
      OFFSET 0.000000 0.100000 0.000000
    }
  }
  JOINT LFoot
  {
    OFFSET 0.000000 0.000000 0.000000
    CHANNELS 3 Xposition Yposition Zposition
    End Site
    {
      OFFSET 0.000000 0.100000 0.000000
    }
  }
  JOINT Spine
  {
    OFFSET 0.000000 0.000000 0.000000
    CHANNELS 3 Xposition Yposition Zposition
    End Site
    {
      OFFSET 0.000000 0.100000 0.000000
    }
  }
  JOINT Thorax
  {
    OFFSET 0.000000 0.000000 0.000000
    CHANNELS 3 Xposition Yposition Zposition
    End Site
    {
      OFFSET 0.000000 0.100000 0.000000
    }
  }
  JOINT Nose
  {
    OFFSET 0.000000 0.000000 0.000000
    CHANNELS 3 Xposition Yposition Zposition
    End Site
    {
      OFFSET 0.000000 0.100000 0.000000
    }
  }
  JOINT Head
  {
    OFFSET 0.000000 0.000000 0.000000
    CHANNELS 3 Xposition Yposition Zposition
    End Site
    {
      OFFSET 0.000000 0.100000 0.000000
    }
  }
  JOINT LShoulder
  {
    OFFSET 0.000000 0.000000 0.000000
    CHANNELS 3 Xposition Yposition Zposition
    End Site
    {
      OFFSET 0.000000 0.100000 0.000000
    }
  }
  JOINT LElbow
  {
    OFFSET 0.000000 0.000000 0.000000
    CHANNELS 3 Xposition Yposition Zposition
    End Site
    {
      OFFSET 0.000000 0.100000 0.000000
    }
  }
  JOINT LWrist
  {
    OFFSET 0.000000 0.000000 0.000000
    CHANNELS 3 Xposition Yposition Zposition
    End Site
    {
      OFFSET 0.000000 0.100000 0.000000
    }
  }
  JOINT RShoulder
  {
    OFFSET 0.000000 0.000000 0.000000
    CHANNELS 3 Xposition Yposition Zposition
    End Site
    {
      OFFSET 0.000000 0.100000 0.000000
    }
  }
  JOINT RElbow
  {
    OFFSET 0.000000 0.000000 0.000000
    CHANNELS 3 Xposition Yposition Zposition
    End Site
    {
      OFFSET 0.000000 0.100000 0.000000
    }
  }
  JOINT RWrist
  {
    OFFSET 0.000000 0.000000 0.000000
    CHANNELS 3 Xposition Yposition Zposition
    End Site
    {
      OFFSET 0.000000 0.100000 0.000000
    }
  }
}
MOTION
Frames: 11
Frame Time: 0.033333
0.000000 0.000000 0.950000 0.000000 0.000000 0.000000 -0.100000 0.000000 -0.050000 -0.100000 0.000000 -0.450000 -0.100000 0.000000 -0.900000 0.100000 0.000000 -0.050000 0.100000 0.000000 -0.450000 0.100000 0.000000 -0.900000 0.000000 0.000000 0.150000 0.000000 0.000000 0.400000 0.000000 0.000000 0.550000 0.000000 0.000000 0.650000 0.200000 0.000000 0.400000 0.397990 -0.197990 0.250000 0.567696 -0.367696 0.150000 -0.200000 0.000000 0.400000 0.047657 -0.130637 0.250000 0.259934 -0.242611 0.150000
0.000000 0.000000 0.950000 0.000000 0.000000 0.000000 -0.100000 0.000000 -0.050000 -0.100000 0.000000 -0.450000 -0.100000 0.000000 -0.900000 0.100000 0.000000 -0.050000 0.100000 0.000000 -0.450000 0.100000 0.000000 -0.900000 0.000000 0.000000 0.150000 0.000000 0.000000 0.400000 0.000000 0.000000 0.550000 0.000000 0.000000 0.650000 0.199997 0.001047 0.400000 0.404442 -0.190270 0.250000 0.579681 -0.354256 0.150000 -0.199997 -0.001047 0.400000 0.051855 -0.123401 0.250000 0.267728 -0.228276 0.150000
0.000000 0.000000 0.950000 0.000000 0.000000 0.000000 -0.100000 0.000000 -0.050000 -0.100000 0.000000 -0.450000 -0.100000 0.000000 -0.900000 0.100000 0.000000 -0.050000 0.100000 0.000000 -0.450000 0.100000 0.000000 -0.900000 0.000000 0.000000 0.150000 0.000000 0.000000 0.400000 0.000000 0.000000 0.550000 0.000000 0.000000 0.650000 0.199989 0.002093 0.400000 0.410664 -0.182342 0.250000 0.591242 -0.340429 0.150000 -0.199989 -0.002093 0.400000 0.055780 -0.116031 0.250000 0.275011 -0.213693 0.150000
0.000000 0.000000 0.950000 0.000000 0.000000 0.000000 -0.100000 0.000000 -0.050000 -0.100000 0.000000 -0.450000 -0.100000 0.000000 -0.900000 0.100000 0.000000 -0.050000 0.100000 0.000000 -0.450000 0.100000 0.000000 -0.900000 0.000000 0.000000 0.150000 0.000000 0.000000 0.400000 0.000000 0.000000 0.550000 0.000000 0.000000 0.650000 0.199975 0.003136 0.400000 0.416646 -0.174217 0.250000 0.602363 -0.326234 0.150000 -0.199975 -0.003136 0.400000 0.059429 -0.108537 0.250000 0.281775 -0.198881 0.150000
0.000000 0.000000 0.950000 0.000000 0.000000 0.000000 -0.100000 0.000000 -0.050000 -0.100000 0.000000 -0.450000 -0.100000 0.000000 -0.900000 0.100000 0.000000 -0.050000 0.100000 0.000000 -0.450000 0.100000 0.000000 -0.900000 0.000000 0.000000 0.150000 0.000000 0.000000 0.400000 0.000000 0.000000 0.550000 0.000000 0.000000 0.650000 0.199956 0.004175 0.400000 0.422381 -0.165905 0.250000 0.613031 -0.311689 0.150000 -0.199956 -0.004175 0.400000 0.062796 -0.100928 0.250000 0.288012 -0.183859 0.150000
0.000000 0.000000 0.950000 0.000000 0.000000 0.000000 -0.100000 0.000000 -0.050000 -0.100000 0.000000 -0.450000 -0.100000 0.000000 -0.900000 0.100000 0.000000 -0.050000 0.100000 0.000000 -0.450000 0.100000 0.000000 -0.900000 0.000000 0.000000 0.150000 0.000000 0.000000 0.400000 0.000000 0.000000 0.550000 0.000000 0.000000 0.650000 0.199932 0.005209 0.400000 0.427863 -0.157418 0.250000 0.623232 -0.296813 0.150000 -0.199932 -0.005209 0.400000 0.065878 -0.093214 0.250000 0.293715 -0.168648 0.150000
0.000000 0.000000 0.950000 0.000000 0.000000 0.000000 -0.100000 0.000000 -0.050000 -0.100000 0.000000 -0.450000 -0.100000 0.000000 -0.900000 0.100000 0.000000 -0.050000 0.100000 0.000000 -0.450000 0.100000 0.000000 -0.900000 0.000000 0.000000 0.150000 0.000000 0.000000 0.400000 0.000000 0.000000 0.550000 0.000000 0.000000 0.650000 0.199903 0.006236 0.400000 0.433085 -0.148767 0.250000 0.632956 -0.281627 0.150000 -0.199903 -0.006236 0.400000 0.068671 -0.085406 0.250000 0.298878 -0.153266 0.150000
0.000000 0.000000 0.950000 0.000000 0.000000 0.000000 -0.100000 0.000000 -0.050000 -0.100000 0.000000 -0.450000 -0.100000 0.000000 -0.900000 0.100000 0.000000 -0.050000 0.100000 0.000000 -0.450000 0.100000 0.000000 -0.900000 0.000000 0.000000 0.150000 0.000000 0.000000 0.400000 0.000000 0.000000 0.550000 0.000000 0.000000 0.650000 0.199868 0.007256 0.400000 0.438042 -0.139963 0.250000 0.642191 -0.266150 0.150000 -0.199868 -0.007256 0.400000 0.071174 -0.077514 0.250000 0.303495 -0.137736 0.150000
0.000000 0.000000 0.950000 0.000000 0.000000 0.000000 -0.100000 0.000000 -0.050000 -0.100000 0.000000 -0.450000 -0.100000 0.000000 -0.900000 0.100000 0.000000 -0.050000 0.100000 0.000000 -0.450000 0.100000 0.000000 -0.900000 0.000000 0.000000 0.150000 0.000000 0.000000 0.400000 0.000000 0.000000 0.550000 0.000000 0.000000 0.650000 0.199829 0.008267 0.400000 0.442728 -0.131018 0.250000 0.650927 -0.250404 0.150000 -0.199829 -0.008267 0.400000 0.073382 -0.069549 0.250000 0.307564 -0.122076 0.150000
0.000000 0.000000 0.950000 0.000000 0.000000 0.000000 -0.100000 0.000000 -0.050000 -0.100000 0.000000 -0.450000 -0.100000 0.000000 -0.900000 0.100000 0.000000 -0.050000 0.100000 0.000000 -0.450000 0.100000 0.000000 -0.900000 0.000000 0.000000 0.150000 0.000000 0.000000 0.400000 0.000000 0.000000 0.550000 0.000000 0.000000 0.650000 0.199785 0.009267 0.400000 0.447138 -0.121944 0.250000 0.659155 -0.234411 0.150000 -0.199785 -0.009267 0.400000 0.075296 -0.061520 0.250000 0.311080 -0.106308 0.150000
0.000000 0.000000 0.950000 0.000000 0.000000 0.000000 -0.100000 0.000000 -0.050000 -0.100000 0.000000 -0.450000 -0.100000 0.000000 -0.900000 0.100000 0.000000 -0.050000 0.100000 0.000000 -0.450000 0.100000 0.000000 -0.900000 0.000000 0.000000 0.150000 0.000000 0.000000 0.400000 0.000000 0.000000 0.550000 0.000000 0.000000 0.650000 0.199737 0.010256 0.400000 0.451269 -0.112754 0.250000 0.666869 -0.218191 0.150000 -0.199737 -0.010256 0.400000 0.076913 -0.053439 0.250000 0.314042 -0.090453 0.150000
